<svg width="17" height="18" viewBox="0 0 17 18" fill="none" xmlns="http://www.w3.org/2000/svg">
<g clip-path="url(#clip0_61_10094)">
<path d="M14.8996 6.59961H7.69926C6.81556 6.59961 6.09918 7.31599 6.09918 8.1997V15.4001C6.09918 16.2838 6.81556 17.0002 7.69926 17.0002H14.8996C15.7833 17.0002 16.4997 16.2838 16.4997 15.4001V8.1997C16.4997 7.31599 15.7833 6.59961 14.8996 6.59961Z" stroke="white" stroke-width="1.09097" stroke-linecap="round" stroke-linejoin="round"/>
<path d="M2.8997 11.4006H2.09965C1.67529 11.4006 1.2683 11.232 0.968226 10.9319C0.668152 10.6318 0.499573 10.2248 0.499573 9.80047V2.60009C0.499573 2.17572 0.668152 1.76873 0.968226 1.46865C1.2683 1.16858 1.67529 1 2.09965 1H9.30002C9.72439 1 10.1314 1.16858 10.4315 1.46865C10.7315 1.76873 10.9001 2.17572 10.9001 2.60009V3.40013" stroke="white" stroke-width="1.09097" stroke-linecap="round" stroke-linejoin="round"/>
</g>
<defs>
<clipPath id="clip0_61_10094">
<rect width="17" height="17" fill="white" transform="translate(0 0.5)"/>
</clipPath>
</defs>
</svg>
