<svg width="15" height="16" viewBox="0 0 15 16" fill="none" xmlns="http://www.w3.org/2000/svg">
<g clip-path="url(#clip0_61_10097)">
<path d="M1.66667 15.5H13.3333C14.25 15.5 15 14.75 15 13.8333V8H14.1176V13.8333C14.1176 14.1765 13.6765 14.6176 13.3333 14.6176H1.66667C1.32353 14.6176 0.882353 14.1765 0.882353 13.8333V2.16667C0.882353 1.82353 1.32353 1.38235 1.66667 1.38235H7.5V0.5H1.66667C0.75 0.5 0 1.25 0 2.16667V13.8333C0 14.75 0.75 15.5 1.66667 15.5Z" fill="white"/>
<path d="M15 6.33334L14.1175 6.33334V1.38258L9.16672 1.38258V0.5H15V6.33334Z" fill="white"/>
<path d="M14.1176 1.38281L5.29404 10.2063" stroke="white" stroke-width="0.882353"/>
</g>
<defs>
<clipPath id="clip0_61_10097">
<rect width="15" height="15" fill="white" transform="translate(0 0.5)"/>
</clipPath>
</defs>
</svg>
