<svg width="30" height="34" viewBox="0 0 30 34" fill="none" xmlns="http://www.w3.org/2000/svg">
<path d="M15.2177 20.3764C25.0048 20.3764 27.4516 28.5323 27.4516 32.6102H2.98389C2.98389 28.5323 5.43066 20.3764 15.2177 20.3764ZM15.2177 20.3764C12.1593 20.3764 6.04235 18.5413 6.04235 11.201C6.04235 3.86071 12.1593 2.02563 15.2177 2.02563C18.2762 2.02563 24.3931 3.86071 24.3931 11.201C24.3931 18.5413 18.2762 20.3764 15.2177 20.3764Z" stroke="#2987C8" stroke-opacity="0.33" stroke-width="1.5"/>
<path d="M15.2177 20.3764C25.0048 20.3764 27.4516 28.5323 27.4516 32.6102H2.98389C2.98389 28.5323 5.43066 20.3764 15.2177 20.3764ZM15.2177 20.3764C12.1593 20.3764 6.04235 18.5413 6.04235 11.201C6.04235 3.86071 12.1593 2.02563 15.2177 2.02563C18.2762 2.02563 24.3931 3.86071 24.3931 11.201C24.3931 18.5413 18.2762 20.3764 15.2177 20.3764Z" stroke="url(#paint0_linear_58_1029)" stroke-width="1.5"/>
<path d="M15.2177 20.3764C25.0048 20.3764 27.4516 28.5323 27.4516 32.6102H2.98389C2.98389 28.5323 5.43066 20.3764 15.2177 20.3764ZM15.2177 20.3764C12.1593 20.3764 6.04235 18.5413 6.04235 11.201C6.04235 3.86071 12.1593 2.02563 15.2177 2.02563C18.2762 2.02563 24.3931 3.86071 24.3931 11.201C24.3931 18.5413 18.2762 20.3764 15.2177 20.3764Z" stroke="url(#paint1_linear_58_1029)" stroke-width="1.5"/>
<defs>
<linearGradient id="paint0_linear_58_1029" x1="23.8458" y1="2.02563" x2="4.51626" y2="13.9792" gradientUnits="userSpaceOnUse">
<stop stop-color="#EBEBEB" stop-opacity="0.25"/>
<stop offset="1" stop-color="#BCBCBC" stop-opacity="0.12"/>
</linearGradient>
<linearGradient id="paint1_linear_58_1029" x1="25.7959" y1="2.02564" x2="-0.581217" y2="15.8967" gradientUnits="userSpaceOnUse">
<stop stop-color="#2987C8" stop-opacity="0.22"/>
<stop offset="1" stop-color="#2987C8" stop-opacity="0.02"/>
</linearGradient>
</defs>
</svg>
