<svg width="884" height="300" viewBox="0 0 884 300" fill="none" xmlns="http://www.w3.org/2000/svg">
<path d="M2.65491 88.4955V254.867L73.4514 297.345M2.65491 88.4955L73.4514 3.53979M2.65491 88.4955L73.4514 122.124M2.65491 88.4955L73.4514 55.3097M73.4514 297.345L144.248 254.867V88.4955M73.4514 297.345V122.124M73.4514 3.53979L144.248 88.4955M73.4514 3.53979V55.3097M73.4514 122.124L144.248 88.4955M73.4514 122.124V88.7168V55.3097M73.4514 55.3097L144.248 88.4955" stroke="white" stroke-width="4.42478"/>
<path d="M297.368 174.955H302.624L324.435 203.861L325.223 204.912L343.881 229.614H338.625L321.544 207.014L320.756 205.963L297.368 174.955ZM347.822 149.727C347.822 163.436 345.479 175.48 340.793 185.86C336.107 196.24 329.581 204.343 321.216 210.168C312.85 215.949 303.149 218.839 292.112 218.839C281.031 218.839 271.308 215.927 262.943 210.102C254.578 204.277 248.052 196.174 243.366 185.794C238.723 175.414 236.402 163.392 236.402 149.727C236.402 136.019 238.745 123.996 243.431 113.66C248.118 103.28 254.644 95.1777 263.009 89.3526C271.374 83.5276 281.075 80.6151 292.112 80.6151C303.149 80.6151 312.85 83.5276 321.216 89.3526C329.581 95.1339 336.107 103.214 340.793 113.594C345.479 123.974 347.822 136.019 347.822 149.727ZM343.618 149.727C343.618 136.851 341.45 125.551 337.114 115.828C332.778 106.061 326.734 98.4625 318.982 93.0316C311.274 87.5569 302.317 84.8196 292.112 84.8196C281.951 84.8196 272.995 87.535 265.243 92.9659C257.534 98.353 251.49 105.93 247.11 115.697C242.775 125.42 240.607 136.763 240.607 149.727C240.607 162.516 242.753 173.794 247.045 183.561C251.337 193.284 257.337 200.904 265.045 206.423C272.798 211.898 281.82 214.635 292.112 214.635C302.317 214.635 311.295 211.92 319.048 206.489C326.8 201.014 332.844 193.415 337.18 183.692C341.516 173.925 343.662 162.604 343.618 149.727ZM462.748 183.889V116.091H466.952V217H462.748V200.97H462.222C459.857 206.226 455.959 210.43 450.528 213.584C445.141 216.737 438.966 218.314 432.002 218.314C425.257 218.314 419.301 216.847 414.133 213.912C408.965 210.978 404.913 206.927 401.979 201.759C399.045 196.59 397.577 190.634 397.577 183.889V116.091H401.782V183.889C401.782 192.824 404.585 200.094 410.191 205.7C415.797 211.306 423.067 214.109 432.002 214.109C437.958 214.109 443.236 212.817 447.835 210.233C452.477 207.649 456.112 204.08 458.74 199.525C461.412 194.97 462.748 189.758 462.748 183.889ZM546.451 219.102C540.933 219.102 535.83 217.964 531.144 215.686C526.501 213.409 522.757 210.08 519.91 205.7C517.107 201.321 515.705 195.977 515.705 189.67C515.705 186.254 516.253 183.057 517.348 180.079C518.443 177.057 520.37 174.319 523.129 171.867C525.888 169.414 529.742 167.312 534.691 165.56C539.684 163.808 546.057 162.472 553.809 161.553C558.452 161.027 562.831 160.414 566.948 159.713C571.065 159.012 574.416 157.961 577 156.56C579.584 155.158 580.876 153.143 580.876 150.516V144.472C580.876 136.719 578.27 130.5 573.058 125.814C567.846 121.084 560.904 118.719 552.232 118.719C545.137 118.719 538.94 120.295 533.64 123.449C528.341 126.558 524.64 130.938 522.538 136.588L518.596 135.011C520.173 130.807 522.603 127.172 525.888 124.106C529.173 121.04 533.071 118.675 537.582 117.011C542.093 115.346 546.977 114.514 552.232 114.514C557.357 114.514 561.933 115.281 565.963 116.814C570.036 118.303 573.496 120.405 576.343 123.12C579.19 125.792 581.358 128.945 582.847 132.581C584.336 136.216 585.08 140.179 585.08 144.472V217H580.876V196.503H580.35C578.248 201.058 575.511 205.043 572.138 208.46C568.81 211.832 564.955 214.46 560.576 216.343C556.24 218.183 551.532 219.102 546.451 219.102ZM546.451 214.898C552.845 214.898 558.649 213.19 563.861 209.773C569.072 206.313 573.211 201.518 576.277 195.386C579.343 189.211 580.876 182.05 580.876 173.903V158.662C579.649 159.582 578.16 160.392 576.408 161.093C574.7 161.793 572.751 162.429 570.562 162.998C568.415 163.523 566.072 163.983 563.532 164.377C560.992 164.772 558.276 165.144 555.386 165.494C546.363 166.545 539.268 168.144 534.1 170.29C528.932 172.436 525.275 175.13 523.129 178.371C520.983 181.612 519.91 185.378 519.91 189.67C519.91 197.291 522.45 203.401 527.531 208C532.655 212.598 538.962 214.898 546.451 214.898ZM639.812 217V116.091H644.016V132.121H644.542C646.907 126.865 650.783 122.661 656.17 119.507C661.601 116.354 667.798 114.777 674.762 114.777C675.288 114.777 675.638 114.777 675.813 114.777C675.988 114.777 676.339 114.777 676.864 114.777V118.982C676.339 118.982 675.988 118.982 675.813 118.982C675.638 118.982 675.288 118.982 674.762 118.982C668.806 118.982 663.506 120.274 658.864 122.858C654.265 125.442 650.63 129.011 647.958 133.566C645.33 138.121 644.016 143.333 644.016 149.202V217H639.812ZM756.33 116.091V120.295H716.387V116.091H756.33ZM731.103 91.9148H735.307V195.714C735.307 199.656 736.183 203.051 737.935 205.897C739.687 208.7 742.008 210.868 744.899 212.401C747.79 213.89 750.899 214.635 754.228 214.635C755.498 214.635 756.659 214.525 757.71 214.306C758.805 214.087 759.922 213.759 761.06 213.321L762.374 217.263C761.06 217.745 759.768 218.117 758.498 218.38C757.228 218.686 755.805 218.839 754.228 218.839C750.111 218.839 746.279 217.898 742.731 216.015C739.227 214.131 736.402 211.46 734.256 208C732.154 204.54 731.103 200.445 731.103 195.714V91.9148ZM803.934 217V212.795L864.374 120.821V120.295H807.875V116.091H869.63V120.295L809.189 212.27V212.795H872.257V217H803.934Z" fill="white"/>
</svg>
