<svg width="14" height="14" viewBox="0 0 14 14" fill="none" xmlns="http://www.w3.org/2000/svg">
<rect x="0.4" y="0.4" width="13.2" height="13.2" rx="6.6" stroke="#AC5B99" stroke-opacity="0.33" stroke-width="0.8"/>
<rect x="0.4" y="0.4" width="13.2" height="13.2" rx="6.6" stroke="url(#paint0_linear_109_2655)" stroke-width="0.8"/>
<path d="M7.70173 3.00234L7.5836 8.17837H6.43099L6.31645 3.00234H7.70173ZM7.0073 10.412C6.79014 10.412 6.604 10.3356 6.44889 10.1829C6.29616 10.0302 6.2198 9.84405 6.2198 9.6245C6.2198 9.40973 6.29616 9.22598 6.44889 9.07325C6.604 8.92052 6.79014 8.84416 7.0073 8.84416C7.21968 8.84416 7.40343 8.92052 7.55855 9.07325C7.71605 9.22598 7.7948 9.40973 7.7948 9.6245C7.7948 9.77007 7.75781 9.90251 7.68383 10.0218C7.61224 10.1411 7.51679 10.2366 7.39747 10.3082C7.28054 10.3774 7.15048 10.412 7.0073 10.412Z" fill="#AC5B99" fill-opacity="0.33"/>
<path d="M7.70173 3.00234L7.5836 8.17837H6.43099L6.31645 3.00234H7.70173ZM7.0073 10.412C6.79014 10.412 6.604 10.3356 6.44889 10.1829C6.29616 10.0302 6.2198 9.84405 6.2198 9.6245C6.2198 9.40973 6.29616 9.22598 6.44889 9.07325C6.604 8.92052 6.79014 8.84416 7.0073 8.84416C7.21968 8.84416 7.40343 8.92052 7.55855 9.07325C7.71605 9.22598 7.7948 9.40973 7.7948 9.6245C7.7948 9.77007 7.75781 9.90251 7.68383 10.0218C7.61224 10.1411 7.51679 10.2366 7.39747 10.3082C7.28054 10.3774 7.15048 10.412 7.0073 10.412Z" fill="url(#paint1_linear_109_2655)"/>
<defs>
<linearGradient id="paint0_linear_109_2655" x1="13.0526" y1="1.62319e-06" x2="-0.400524" y2="8.84336" gradientUnits="userSpaceOnUse">
<stop stop-color="#AC5B99" stop-opacity="0.75"/>
<stop offset="1" stop-color="#AC5B99" stop-opacity="0.25"/>
</linearGradient>
<linearGradient id="paint1_linear_109_2655" x1="8.71335" y1="2.33325" x2="4.17269" y2="3.45255" gradientUnits="userSpaceOnUse">
<stop stop-color="#AC5B99" stop-opacity="0.75"/>
<stop offset="1" stop-color="#AC5B99" stop-opacity="0.25"/>
</linearGradient>
</defs>
</svg>
