<svg width="12" height="12" viewBox="0 0 12 12" fill="none" xmlns="http://www.w3.org/2000/svg">
<rect x="0.1875" y="0.1875" width="11.625" height="11.625" rx="5.8125" stroke="white" stroke-opacity="0.85" stroke-width="0.375"/>
<path d="M5.66909 7.19898V7.0333C5.67114 6.71011 5.70693 6.44727 5.77648 6.24477C5.84602 6.04227 5.9483 5.87148 6.0833 5.73239C6.22034 5.59125 6.39011 5.45625 6.59261 5.32739C6.74398 5.2292 6.8708 5.12591 6.97307 5.0175C7.07739 4.90704 7.15614 4.78636 7.20932 4.65545C7.26455 4.5225 7.29216 4.37829 7.29216 4.22284C7.29216 4.00193 7.24 3.80864 7.13568 3.64295C7.03341 3.47727 6.89432 3.34943 6.71841 3.25943C6.5425 3.16739 6.34716 3.12136 6.13239 3.12136C5.92784 3.12136 5.73659 3.16636 5.55864 3.25636C5.38273 3.34432 5.23852 3.47523 5.12602 3.64909C5.01557 3.82091 4.95523 4.03364 4.945 4.28727H4.36511C4.37534 3.94977 4.4592 3.65727 4.6167 3.40977C4.7742 3.16227 4.98489 2.97102 5.24875 2.83602C5.51261 2.69898 5.80716 2.63045 6.13239 2.63045C6.47193 2.63045 6.77057 2.70102 7.0283 2.84216C7.28602 2.98125 7.4875 3.1725 7.63273 3.41591C7.77796 3.65727 7.85057 3.93443 7.85057 4.24739C7.85057 4.45398 7.81784 4.64216 7.75239 4.81193C7.68693 4.9817 7.58875 5.13818 7.45784 5.28136C7.32898 5.42454 7.16739 5.55954 6.97307 5.68636C6.78898 5.80909 6.64273 5.93079 6.53432 6.05148C6.42591 6.17216 6.34818 6.31023 6.30114 6.46568C6.25409 6.61909 6.22852 6.8083 6.22443 7.0333V7.19898H5.66909ZM5.96364 9.04602C5.84295 9.04602 5.73864 9.00307 5.65068 8.91716C5.56477 8.8292 5.52182 8.72489 5.52182 8.6042C5.52182 8.48148 5.56477 8.37716 5.65068 8.29125C5.73864 8.20534 5.84295 8.16239 5.96364 8.16239C6.08432 8.16239 6.18761 8.20534 6.27352 8.29125C6.36148 8.37716 6.40545 8.48148 6.40545 8.6042C6.40545 8.68398 6.385 8.75761 6.34409 8.82511C6.30523 8.89261 6.25205 8.94682 6.18455 8.98773C6.11909 9.02659 6.04545 9.04602 5.96364 9.04602Z" fill="white" fill-opacity="0.85"/>
</svg>
